<svg width="70" height="70" viewBox="0 0 70 70" fill="none" xmlns="http://www.w3.org/2000/svg">
<path d="M35.0017 58.7097C34.1036 58.7108 33.2426 59.068 32.6076 59.703C31.9726 60.3381 31.6153 61.199 31.6143 62.0971V68.8709H38.388V62.0971C38.387 61.1992 38.0299 60.3384 37.3951 59.7034C36.7602 59.0684 35.8995 58.7111 35.0017 58.7097Z" fill="#004282"/>
<path d="M44.0329 57.5806C43.1348 57.5817 42.2739 57.9389 41.6388 58.5739C41.0038 59.2089 40.6466 60.0699 40.6455 60.968V67.7417H47.4193V60.968C47.4182 60.0701 47.0611 59.2093 46.4263 58.5743C45.7915 57.9393 44.9308 57.5819 44.0329 57.5806Z" fill="#004282"/>
<path d="M53.0651 56.4514C52.1671 56.4525 51.3061 56.8097 50.6711 57.4448C50.036 58.0798 49.6788 58.9408 49.6777 59.8388V67.7417L56.4515 66.6126V59.8388C56.4504 58.9409 56.0933 58.0801 55.4585 57.4451C54.8237 56.8101 53.963 56.4528 53.0651 56.4514Z" fill="#004282"/>
<path d="M62.0973 54.1942C61.1993 54.1953 60.3383 54.5525 59.7033 55.1875C59.0683 55.8226 58.711 56.6835 58.71 57.5816V65.4845L65.4837 63.2263V57.5806C65.4824 56.6829 65.1252 55.8223 64.4904 55.1875C63.8556 54.5528 62.9951 54.1956 62.0973 54.1942Z" fill="#004282"/>
<path d="M25.9685 57.5806C25.0704 57.5817 24.2094 57.9389 23.5744 58.5739C22.9394 59.2089 22.5821 60.0699 22.5811 60.968V67.7417H29.3548V60.968C29.3538 60.0701 28.9967 59.2093 28.3618 58.5743C27.727 57.9393 26.8663 57.5819 25.9685 57.5806Z" fill="#004282"/>
<path d="M16.9362 56.4514C16.0382 56.4525 15.1772 56.8097 14.5422 57.4448C13.9071 58.0798 13.5499 58.9408 13.5488 59.8388V66.6126L20.3226 67.7417V59.8388C20.3215 58.9409 19.9644 58.0801 19.3296 57.4451C18.6948 56.8101 17.8341 56.4528 16.9362 56.4514Z" fill="#004282"/>
<path d="M7.90399 54.1942C7.00593 54.1953 6.14496 54.5525 5.50993 55.1875C4.87491 55.8226 4.51768 56.6835 4.5166 57.5816V63.2232L11.2904 65.4815V57.5786C11.2885 56.6812 10.931 55.8212 10.2963 55.1868C9.6616 54.5525 8.80135 54.1956 7.90399 54.1942Z" fill="#004282"/>
<path d="M35.0017 45.1612C34.1036 45.1622 33.2426 45.5195 32.6076 46.1545C31.9726 46.7895 31.6153 47.6505 31.6143 48.5485V55.3223H38.388V48.5485C38.387 47.6507 38.0299 46.7898 37.3951 46.1549C36.7602 45.5199 35.8995 45.1625 35.0017 45.1612Z" fill="#004282"/>
<path d="M44.0329 44.0331C43.1348 44.0341 42.2739 44.3913 41.6388 45.0264C41.0038 45.6614 40.6466 46.5224 40.6455 47.4204V54.1942H47.4193V47.4204C47.4182 46.5225 47.0611 45.6617 46.4263 45.0267C45.7915 44.3917 44.9308 44.0344 44.0329 44.0331Z" fill="#004282"/>
<path d="M53.0651 42.9039C52.1671 42.905 51.3061 43.2622 50.6711 43.8972C50.036 44.5323 49.6788 45.3932 49.6777 46.2913V54.1942L56.4515 53.0651V46.2913C56.4504 45.3934 56.0933 44.5326 55.4585 43.8976C54.8237 43.2626 53.963 42.9053 53.0651 42.9039Z" fill="#004282"/>
<path d="M62.0973 40.6457C61.1993 40.6467 60.3383 41.004 59.7033 41.639C59.0683 42.274 58.711 43.135 58.71 44.033V51.9359L65.4837 49.6777V44.0321C65.4824 43.1343 65.1252 42.2738 64.4904 41.639C63.8556 41.0042 62.9951 40.647 62.0973 40.6457Z" fill="#004282"/>
<path d="M54.194 29.3554C53.296 29.3565 52.435 29.7137 51.8 30.3487C51.1649 30.9837 50.8077 31.8447 50.8066 32.7428V40.6457L57.5804 39.5165V32.7428C57.5793 31.8449 57.2222 30.9841 56.5874 30.3491C55.9526 29.7141 55.0919 29.3567 54.194 29.3554Z" fill="#004282"/>
<path d="M63.2262 27.0971C62.3282 27.0982 61.4672 27.4554 60.8322 28.0904C60.1972 28.7255 59.8399 29.5864 59.8389 30.4845V38.3874L66.6126 36.1291V30.4835C66.6113 29.5858 66.2541 28.7252 65.6193 28.0904C64.9845 27.4557 64.124 27.0984 63.2262 27.0971Z" fill="#004282"/>
<path d="M25.9685 44.0331C25.0704 44.0341 24.2094 44.3913 23.5744 45.0264C22.9394 45.6614 22.5821 46.5224 22.5811 47.4204V54.1942H29.3548V47.4204C29.3538 46.5225 28.9967 45.6617 28.3618 45.0267C27.727 44.3917 26.8663 44.0344 25.9685 44.0331Z" fill="#004282"/>
<path d="M16.9362 42.9039C16.0382 42.905 15.1772 43.2622 14.5422 43.8972C13.9071 44.5323 13.5499 45.3932 13.5488 46.2913V53.0651L20.3226 54.1942V46.2913C20.3215 45.3934 19.9644 44.5326 19.3296 43.8976C18.6948 43.2626 17.8341 42.9053 16.9362 42.9039Z" fill="#004282"/>
<path d="M7.90399 40.6457C7.00593 40.6467 6.14496 41.004 5.50993 41.639C4.87491 42.274 4.51768 43.135 4.5166 44.033V49.6746L11.2904 51.9329V44.03C11.2885 43.1326 10.931 42.2726 10.2963 41.6383C9.6616 41.0039 8.80135 40.647 7.90399 40.6457Z" fill="#004282"/>
<path d="M15.8073 29.3554C14.9092 29.3565 14.0483 29.7137 13.4133 30.3487C12.7782 30.9837 12.421 31.8447 12.4199 32.7428V39.5165L19.1937 40.6457V32.7428C19.1926 31.8449 18.8355 30.9841 18.2007 30.3491C17.5659 29.7141 16.7052 29.3567 15.8073 29.3554Z" fill="#004282"/>
<path d="M6.77509 27.0971C5.87702 27.0982 5.01605 27.4554 4.38103 28.0904C3.746 28.7255 3.38877 29.5864 3.3877 30.4845V36.1261L10.1615 38.3844V30.4815C10.1596 29.5841 9.80214 28.7241 9.16742 28.0897C8.5327 27.4554 7.67245 27.0984 6.77509 27.0971Z" fill="#004282"/>
<path d="M35 0C12.2672 0 0 6.39841 0 12.4194V57.5806C0 63.6016 12.2672 70 35 70C57.7328 70 70 63.6016 70 57.5806V12.4194C70 6.39841 57.7328 0 35 0ZM35 2.25826C54.2957 2.25826 67.7417 7.61377 67.7417 12.4194C67.6693 13.1043 67.4455 13.7646 67.0866 14.3524C66.7276 14.9402 66.2424 15.4408 65.6661 15.818C64.6555 15.2396 63.6045 14.7351 62.5212 14.3084L61.6812 16.4043C62.3426 16.6688 62.9557 16.942 63.5204 17.2241C60.9086 18.5806 58.1385 19.6077 55.2736 20.2817C48.6277 18.7405 41.8219 17.996 35 18.0641C28.1763 17.9953 21.3687 18.7401 14.7213 20.2828C11.8588 19.6083 9.09081 18.5819 6.48058 17.2271C12.387 14.2851 23.2786 12.4184 35 12.4184C44.2826 12.4184 53.2101 13.5841 59.4929 15.6171L60.1868 13.4694C53.5926 11.339 44.6478 10.1601 34.999 10.1601C22.0135 10.1601 10.3529 12.3241 4.33696 15.82C3.75979 15.4427 3.27377 14.9417 2.91407 14.3534C2.55438 13.7651 2.33002 13.1041 2.25725 12.4184C2.25826 7.6087 15.7043 2.25826 35 2.25826ZM20.5009 21.4667L20.3791 21.4454C25.2156 20.6868 30.1044 20.3113 35 20.3223C39.8952 20.3109 44.7837 20.6861 49.6199 21.4443L49.4991 21.4657L48.5485 21.6168V29.5299C44.0617 30.1777 39.5334 30.4957 35 30.4814C30.4666 30.4957 25.9383 30.1777 21.4515 29.5299V21.6168L20.5009 21.4667ZM35 67.7417C15.7043 67.7417 2.25826 62.3862 2.25826 57.5806V49.3632C7.60768 53.9923 21.6351 56.4504 35 56.4504C48.3649 56.4504 62.3913 53.9923 67.7417 49.3632V57.5806C67.7417 62.3913 54.2957 67.7417 35 67.7417ZM35 54.1932C15.7043 54.1932 2.25826 49.4332 2.25826 45.1642V35.8116C7.6087 40.4458 21.631 42.9029 35 42.9029C48.369 42.9029 62.3913 40.4448 67.7417 35.8157V45.1612C67.7417 49.4332 54.2957 54.1932 35 54.1932ZM40.6456 40.4975C38.8277 40.5888 36.9458 40.6396 35 40.6396C33.0542 40.6396 31.1723 40.5888 29.3543 40.4975V37.2512H40.6456V40.4975ZM42.9039 40.3596V35H27.0971V40.3657C12.1333 39.2893 2.25826 35.2729 2.25826 31.6126V16.9643C5.25203 19.8212 11.1158 22.1383 19.1942 23.5372V31.4635L20.1448 31.6157C25.0591 32.3823 30.0263 32.7589 35 32.7417C39.9741 32.7592 44.9417 32.3823 49.8562 31.6146L50.8068 31.4493V23.5362C58.8852 22.1403 64.748 19.8191 67.7428 16.9633V31.6126C67.7417 35.2729 57.8667 39.2893 42.9029 40.3657L42.9039 40.3596Z" fill="#333333"/>
<path d="M36.5221 5.07245H34.4932V8.11593H36.5221V5.07245Z" fill="#333333"/>
<path d="M47.6812 5.07245H44.6377V9.13042H47.6812V5.07245Z" fill="#333333"/>
<path d="M58.8405 8.11594H56.8115V11.1594H58.8405V8.11594Z" fill="#333333"/>
<path d="M24.3473 5.07245H22.3184V9.13042H24.3473V5.07245Z" fill="#333333"/>
<path d="M13.1882 8.11594H11.1592V11.1594H13.1882V8.11594Z" fill="#333333"/>
</svg>
