<svg width="70" height="70" viewBox="0 0 70 70" fill="none" xmlns="http://www.w3.org/2000/svg">
<g clip-path="url(#clip0_46_1534)">
<path d="M43.2403 66.9944H9.45898V69.6965H43.2403V66.9944Z" fill="#333333"/>
<path d="M9.03237 40.7115C6.45135 40.9993 4.07854 42.2646 2.40143 44.2475C0.724324 46.2303 -0.129717 48.7802 0.0147712 51.3732C0.159259 53.9662 1.2913 56.4054 3.17833 58.1897C5.06535 59.974 7.56405 60.9678 10.1611 60.9671H11.0556C11.9998 62.4115 13.2331 63.6448 14.6775 64.589V66.6122H37.2581V64.589C38.9902 63.4625 40.4137 61.9213 41.3995 60.1054C42.3853 58.2894 42.9022 56.2561 42.9033 54.1898V39.516H9.03237V40.7115ZM2.25854 50.8063C2.26201 48.9079 2.94822 47.074 4.19185 45.6396C5.43549 44.2052 7.15358 43.266 9.03237 42.9934V54.1932C9.03451 55.7346 9.32558 57.262 9.89052 58.6962C7.8445 58.6248 5.90589 57.7627 4.4825 56.2912C3.05911 54.8198 2.26189 52.8536 2.25854 50.8063ZM11.2906 41.7742H40.645V54.1932C40.6421 56.8874 39.5706 59.4703 37.6656 61.3754C35.7605 63.2804 33.1776 64.3519 30.4834 64.3548H21.4522C18.7581 64.3519 16.1751 63.2804 14.2701 61.3754C12.365 59.4703 11.2935 56.8874 11.2906 54.1932V41.7742Z" fill="#333333"/>
<path d="M29.3547 33.8709H30.4834C30.7827 33.8711 31.0696 33.9901 31.2812 34.2017C31.4929 34.4133 31.6118 34.7003 31.6121 34.9996V37.2578H33.8703V34.9996C33.8692 34.1016 33.512 33.2408 32.8771 32.6059C32.2421 31.971 31.3813 31.6138 30.4834 31.6127H29.3547C29.0552 31.6127 28.768 31.4937 28.5563 31.2819C28.3445 31.0702 28.2256 30.783 28.2256 30.4835C28.2256 30.1841 28.3445 29.8969 28.5563 29.6851C28.768 29.4734 29.0552 29.3544 29.3547 29.3544H37.2581C38.1563 29.3544 39.0178 28.9976 39.653 28.3624C40.2882 27.7272 40.645 26.8658 40.645 25.9675C40.645 25.0692 40.2882 24.2078 39.653 23.5726C39.0178 22.9374 38.1563 22.5806 37.2581 22.5806H36.1294C35.8301 22.5804 35.5431 22.4614 35.3315 22.2497C35.1199 22.0381 35.0009 21.7512 35.0007 21.4519V12.419H32.7425V21.451C32.7436 22.349 33.1008 23.2098 33.7357 23.8447C34.3706 24.4796 35.2315 24.8368 36.1294 24.838H37.2581C37.5575 24.838 37.8447 24.9569 38.0565 25.1687C38.2682 25.3804 38.3872 25.6676 38.3872 25.9671C38.3872 26.2665 38.2682 26.5537 38.0565 26.7655C37.8447 26.9772 37.5575 27.0962 37.2581 27.0962H29.3547C28.4564 27.0962 27.5949 27.453 26.9598 28.0882C26.3246 28.7234 25.9678 29.5848 25.9678 30.4831C25.9678 31.3814 26.3246 32.2429 26.9598 32.878C27.5949 33.5132 28.4564 33.87 29.3547 33.87V33.8709Z" fill="#333333"/>
<path d="M14.677 28.2291H15.8057C16.1049 28.2293 16.3919 28.3483 16.6035 28.5599C16.8151 28.7716 16.9341 29.0585 16.9343 29.3578V37.2612H19.1926V29.3578C19.1915 28.4599 18.8343 27.599 18.1993 26.9641C17.5644 26.3292 16.7036 25.972 15.8057 25.9709H14.677C14.3775 25.9709 14.0903 25.8519 13.8786 25.6402C13.6668 25.4284 13.5478 25.1412 13.5478 24.8418C13.5478 24.5423 13.6668 24.2551 13.8786 24.0434C14.0903 23.8316 14.3775 23.7127 14.677 23.7127H22.5803C23.4786 23.7127 24.3401 23.3558 24.9752 22.7206C25.6104 22.0855 25.9673 21.224 25.9673 20.3257C25.9673 19.4275 25.6104 18.566 24.9752 17.9308C24.3401 17.2957 23.4786 16.9388 22.5803 16.9388H21.4516C21.1524 16.9386 20.8654 16.8196 20.6538 16.608C20.4422 16.3964 20.3232 16.1094 20.323 15.8101V12.419H18.0639V15.8059C18.065 16.7038 18.4222 17.5646 19.0571 18.1996C19.692 18.8345 20.5529 19.1917 21.4508 19.1928H22.5795C22.8789 19.1928 23.1661 19.3118 23.3779 19.5235C23.5896 19.7353 23.7086 20.0225 23.7086 20.3219C23.7086 20.6214 23.5896 20.9086 23.3779 21.1203C23.1661 21.3321 22.8789 21.451 22.5795 21.451H14.677C13.7787 21.451 12.9172 21.8079 12.282 22.443C11.6469 23.0782 11.29 23.9397 11.29 24.838C11.29 25.7362 11.6469 26.5977 12.282 27.2329C12.9172 27.868 13.7787 28.2249 14.677 28.2249V28.2291Z" fill="#333333"/>
<path d="M65.4831 37.0524V34.7764C65.4831 34.3437 65.5883 33.9176 65.7896 33.5346C65.991 33.1517 66.2824 32.8234 66.6388 32.5782L66.6743 32.5545C67.3508 32.105 67.9056 31.4952 68.2891 30.7793C68.6726 30.0634 68.8731 29.2637 68.8725 28.4515V23.7169H62.0987V17.857C62.8997 17.5717 63.5638 16.9951 63.9587 16.2422C64.5468 16.4315 65.1757 16.4548 65.7762 16.3096C66.3766 16.1643 66.9254 15.8562 67.362 15.4191C67.7986 14.982 68.106 14.4329 68.2505 13.8322C68.395 13.2316 68.371 12.6027 68.181 12.0149C68.7299 11.7328 69.1905 11.3048 69.5121 10.778C69.8337 10.2512 70.0039 9.64591 70.0039 9.02869C70.0039 8.41148 69.8337 7.80621 69.5121 7.27939C69.1905 6.75258 68.7299 6.32461 68.181 6.04252C68.37 5.45495 68.3934 4.82662 68.2484 4.22663C68.1035 3.62665 67.7959 3.07827 67.3594 2.64181C66.923 2.20536 66.3746 1.89774 65.7746 1.7528C65.1746 1.60786 64.5463 1.63121 63.9587 1.82029C63.6766 1.27112 63.2485 0.81036 62.7215 0.488651C62.1946 0.166942 61.5891 -0.00326538 60.9717 -0.00326538C60.3543 -0.00326538 59.7488 0.166942 59.2219 0.488651C58.6949 0.81036 58.2668 1.27112 57.9847 1.82029C57.3971 1.63121 56.7688 1.60786 56.1688 1.7528C55.5688 1.89774 55.0204 2.20536 54.584 2.64181C54.1475 3.07827 53.8399 3.62665 53.695 4.22663C53.55 4.82662 53.5734 5.45495 53.7624 6.04252C53.2133 6.32467 52.7525 6.75274 52.4308 7.27971C52.1091 7.80668 51.9389 8.41213 51.9389 9.02954C51.9389 9.64694 52.1091 10.2524 52.4308 10.7794C52.7525 11.3063 53.2133 11.7344 53.7624 12.0166C53.5684 12.6045 53.5415 13.2348 53.6846 13.8371C53.8277 14.4395 54.1354 14.9903 54.5732 15.4281C55.011 15.8659 55.5617 16.1735 56.1641 16.3166C56.7665 16.4598 57.3968 16.4328 57.9847 16.2388C58.3797 16.9918 59.0437 17.5683 59.8447 17.8536V23.7076H53.0709V28.4422C53.0706 29.2544 53.2711 30.0542 53.6546 30.7702C54.0381 31.4862 54.5928 32.0962 55.2691 32.5461C55.6358 32.79 55.9364 33.1208 56.1443 33.509C56.3521 33.8973 56.4607 34.3309 56.4603 34.7713V37.0473C56.4593 37.6543 56.2525 38.2429 55.8736 38.7171C53.33 41.9007 51.9413 45.8529 51.9346 49.9279V60.388C51.9382 63.1719 52.5864 65.9173 53.8284 68.4089L54.624 70H67.3059L68.1015 68.408C69.3436 65.9165 69.9918 63.1711 69.9953 60.3871V49.9271C69.9915 45.8557 68.6077 41.9058 66.0698 38.7222C65.6912 38.2479 65.4843 37.6593 65.4831 37.0524ZM62.0962 14.6772C62.0962 14.9767 61.9772 15.2639 61.7655 15.4756C61.5537 15.6874 61.2665 15.8063 60.9671 15.8063C60.6676 15.8063 60.3804 15.6874 60.1687 15.4756C59.9569 15.2639 59.8379 14.9767 59.8379 14.6772V12.2119C60.5652 12.4889 61.3689 12.4889 62.0962 12.2119V14.6772ZM55.3223 10.1608C55.0229 10.1608 54.7357 10.0418 54.5239 9.83006C54.3122 9.61831 54.1932 9.33111 54.1932 9.03165C54.1932 8.73219 54.3122 8.445 54.5239 8.23325C54.7357 8.0215 55.0229 7.90254 55.3223 7.90254H57.7886C57.5115 8.62978 57.5115 9.43352 57.7886 10.1608H55.3223ZM64.1464 7.90254H66.6126C66.9121 7.90254 67.1993 8.0215 67.411 8.23325C67.6228 8.445 67.7417 8.73219 67.7417 9.03165C67.7417 9.33111 67.6228 9.61831 67.411 9.83006C67.1993 10.0418 66.9121 10.1608 66.6126 10.1608H64.1464C64.4235 9.43352 64.4235 8.62978 64.1464 7.90254ZM60.9675 10.1608C60.7442 10.1608 60.526 10.0946 60.3404 9.97055C60.1548 9.84653 60.0101 9.67025 59.9247 9.46401C59.8393 9.25776 59.8169 9.03082 59.8605 8.81188C59.904 8.59293 60.0115 8.39182 60.1694 8.23397C60.3272 8.07612 60.5283 7.96862 60.7473 7.92507C60.9662 7.88152 61.1932 7.90387 61.3994 7.9893C61.6057 8.07473 61.7819 8.2194 61.906 8.40501C62.03 8.59062 62.0962 8.80884 62.0962 9.03207C62.0962 9.18041 62.067 9.32729 62.0102 9.46433C61.9534 9.60137 61.8702 9.72589 61.7653 9.83078C61.6604 9.93567 61.5359 10.0189 61.3989 10.0756C61.2619 10.1324 61.115 10.1616 60.9666 10.1616L60.9675 10.1608ZM65.7579 13.8208C65.5748 14.0011 65.335 14.1124 65.0791 14.1358C64.8232 14.1592 64.5672 14.0933 64.3544 13.9493V12.419H65.8847C66.0285 12.6316 66.0943 12.8874 66.071 13.1431C66.0478 13.3987 65.9368 13.6384 65.757 13.8216L65.7579 13.8208ZM65.7579 4.24084C65.938 4.42398 66.0493 4.66381 66.0727 4.91963C66.0961 5.17546 66.0303 5.4315 65.8864 5.64431H64.3553V4.11402C64.5678 3.97099 64.8232 3.9056 65.0784 3.92885C65.3336 3.9521 65.5729 4.06259 65.7562 4.24169L65.7579 4.24084ZM59.8396 3.38608C59.8396 3.08662 59.9586 2.79943 60.1703 2.58768C60.3821 2.37593 60.6693 2.25697 60.9687 2.25697C61.2682 2.25697 61.5554 2.37593 61.7672 2.58768C61.9789 2.79943 62.0979 3.08662 62.0979 3.38608V5.85314C61.3706 5.57613 60.5669 5.57613 59.8396 5.85314V3.38693V3.38608ZM56.178 4.24169C56.3614 4.06211 56.6012 3.95128 56.8568 3.92787C57.1125 3.90446 57.3684 3.96991 57.5814 4.11318V5.64515H56.0503C55.9063 5.4327 55.8402 5.177 55.8631 4.92138C55.8861 4.66575 55.9967 4.42593 56.1762 4.24253L56.178 4.24169ZM56.178 13.8216C55.9978 13.6385 55.8866 13.3986 55.8631 13.1428C55.8397 12.887 55.9055 12.631 56.0494 12.4181H57.5806V13.9501C57.3677 14.0938 57.1118 14.1596 56.8561 14.1363C56.6004 14.1131 56.3605 14.0022 56.1771 13.8225L56.178 13.8216ZM67.7447 60.3871C67.7417 62.8202 67.1751 65.2195 66.0893 67.3968L65.9202 67.7409H56.0283L55.8592 67.3968C54.7734 65.2195 54.2068 62.8202 54.2038 60.3871V49.9271C54.2087 46.3676 55.4199 42.9149 57.6397 40.1324C58.3378 39.2574 58.7187 38.1717 58.7202 37.0524V34.7764C58.7205 33.9641 58.52 33.1644 58.1365 32.4484C57.753 31.7324 57.1984 31.1223 56.522 30.6725C56.1553 30.4289 55.8545 30.0983 55.6466 29.7101C55.4388 29.322 55.3303 28.8884 55.3308 28.4481V25.9675H66.6118V28.4481C66.6119 28.8808 66.5068 29.307 66.3054 29.69C66.1041 30.0729 65.8126 30.4012 65.456 30.6463L65.4214 30.67C64.7449 31.1198 64.1902 31.73 63.8066 32.4462C63.4231 33.1624 63.2227 33.9623 63.2232 34.7747V37.0507C63.2252 38.1702 63.606 39.256 64.3037 40.1315C66.5261 42.9136 67.7392 46.3672 67.7447 49.9279V60.3871Z" fill="#333333"/>
<path d="M43.2403 44.0232H9.45898V46.7253H43.2403V44.0232Z" fill="#004282"/>
</g>
<defs>
<clipPath id="clip0_46_1534">
<rect width="70" height="70" fill="white"/>
</clipPath>
</defs>
</svg>
