<svg width="70" height="70" viewBox="0 0 70 70" fill="none" xmlns="http://www.w3.org/2000/svg">
<g clip-path="url(#clip0_46_1605)">
<path d="M60.9678 27.0963H63.2255V55.3219H60.9678V27.0963Z" fill="black"/>
<path d="M0 67.7422H2.25776V70H0V67.7422Z" fill="black"/>
<path d="M67.7422 67.7422H69.9999V70H67.7422V67.7422Z" fill="black"/>
<path d="M63.2267 59.8395H60.9679V67.7433H51.9359V59.8395H49.6781V67.7433H45.1584V53.0652C45.1584 50.3702 44.0878 47.7856 42.1822 45.8799C40.2765 43.9743 37.6919 42.9037 34.9969 42.9037C32.3019 42.9037 29.7173 43.9743 27.8116 45.8799C25.906 47.7856 24.8354 50.3702 24.8354 53.0652V67.7422H20.323V59.8395H18.0653V67.7433H9.03317V59.8395H6.77436V67.7433H4.5166V70.001H65.4845V67.7422H63.2267V59.8395ZM27.0973 67.7422V53.0652C27.0853 52.0197 27.2809 50.9822 27.6727 50.0128C28.0644 49.0434 28.6447 48.1614 29.3797 47.4178C30.1148 46.6742 30.9901 46.0839 31.955 45.681C32.9198 45.2781 33.955 45.0706 35.0006 45.0706C36.0461 45.0706 37.0813 45.2781 38.0462 45.681C39.011 46.0839 39.8863 46.6742 40.6214 47.4178C41.3564 48.1614 41.9367 49.0434 42.3285 50.0128C42.7202 50.9822 42.9158 52.0197 42.9038 53.0652V67.7422H27.0973Z" fill="black"/>
<path d="M6.77441 27.0963H9.03218V55.3219H6.77441V27.0963Z" fill="black"/>
<path d="M35.0005 7.90373L3.76585 20.2384C2.99132 20.5406 2.32569 21.0689 1.85556 21.7547C1.38543 22.4404 1.13257 23.2517 1.12988 24.0831C1.13683 24.7642 1.30977 25.4332 1.63372 26.0323C1.95768 26.6313 2.42286 27.1424 2.98894 27.521C3.55502 27.8997 4.20492 28.1345 4.88229 28.2053C5.55966 28.276 6.24406 28.1804 6.87615 27.9269L35.0005 16.8209L63.1217 27.9258C63.7538 28.1794 64.4382 28.2749 65.1155 28.2042C65.7929 28.1335 66.4428 27.8986 67.0089 27.52C67.575 27.1413 68.0401 26.6303 68.3641 26.0312C68.688 25.4322 68.861 24.7631 68.8679 24.0821C68.8653 23.2508 68.6125 22.4396 68.1423 21.754C67.6722 21.0684 67.0065 20.5403 66.232 20.2384L35.0005 7.90373Z" fill="#004282"/>
<path d="M65.4831 60.9679H47.4189V54.1936H65.4831V60.9679Z" fill="#004282"/>
<path d="M29.3555 56.4514H31.6132V58.7091H29.3555V56.4514Z" fill="black"/>
<path d="M34.9999 39.7015C39.3275 39.7015 42.8357 36.1933 42.8357 31.8657C42.8357 27.5381 39.3275 24.0298 34.9999 24.0298C30.6723 24.0298 27.1641 27.5381 27.1641 31.8657C27.1641 36.1933 30.6723 39.7015 34.9999 39.7015Z" fill="#004282"/>
<path d="M42.9031 30.4845H36.1288V23.7101H33.871V30.4845H27.0967V32.7422H33.871V39.5166H36.1288V32.7422H42.9031V30.4845Z" fill="white"/>
<path d="M22.5808 60.9679H4.5166V54.1936H22.5808V60.9679Z" fill="#004282"/>
<path d="M54.1933 39.5155H51.9355C51.9341 38.3182 51.4578 37.1703 50.6111 36.3237C49.7643 35.4772 48.6163 35.0011 47.4189 35V32.7422C48.6165 32.7411 49.7646 32.2649 50.6114 31.4182C51.4582 30.5714 51.9344 29.4232 51.9355 28.2257H54.1933C54.1944 29.4232 54.6706 30.5714 55.5174 31.4182C56.3641 32.2649 57.5123 32.7411 58.7098 32.7422V35C57.5125 35.0011 56.3645 35.4772 55.5177 36.3237C54.671 37.1703 54.1947 38.3182 54.1933 39.5155ZM51.1634 33.8737C51.9153 34.376 52.5601 35.0223 53.0607 35.7752C53.5638 35.019 54.2123 34.3705 54.9685 33.8675C54.2129 33.3663 53.5644 32.7199 53.0607 31.966C52.5592 32.7196 51.9128 33.3659 51.1592 33.8675L51.1634 33.8737Z" fill="black"/>
<path d="M65.4843 15.8064H63.2265C63.2251 14.6091 62.7488 13.4612 61.9021 12.6146C61.0553 11.7681 59.9073 11.292 58.71 11.2909V9.03314C59.9075 9.03203 61.0557 8.55582 61.9024 7.70904C62.7492 6.86226 63.2254 5.7141 63.2265 4.51657H65.4843C65.4854 5.7141 65.9616 6.86226 66.8084 7.70904C67.6552 8.55582 68.8033 9.03203 70.0009 9.03314V11.2909C68.8035 11.292 67.6555 11.7681 66.8088 12.6146C65.962 13.4612 65.4857 14.6091 65.4843 15.8064ZM62.4544 10.1646C63.2063 10.6669 63.8511 11.3132 64.3518 12.0661C64.8548 11.3099 65.5033 10.6614 66.2595 10.1584C65.5037 9.65748 64.8551 9.01108 64.3518 8.25687C63.8502 9.01047 63.2039 9.65683 62.4503 10.1584L62.4544 10.1646Z" fill="black"/>
<path d="M18.0644 50.8064H15.8066C15.8052 49.6091 15.3289 48.4612 14.4821 47.6146C13.6354 46.7681 12.4874 46.292 11.29 46.2909V44.0331C12.4876 44.032 13.6357 43.5558 14.4825 42.709C15.3293 41.8623 15.8055 40.7141 15.8066 39.5166H18.0644C18.0655 40.7141 18.5417 41.8623 19.3885 42.709C20.2352 43.5558 21.3834 44.032 22.5809 44.0331V46.2909C21.3836 46.292 20.2356 46.7681 19.3888 47.6146C18.5421 48.4612 18.0657 49.6091 18.0644 50.8064ZM15.0345 45.1646C15.7863 45.6669 16.4312 46.3132 16.9318 47.0661C17.4349 46.3099 18.0834 45.6614 18.8396 45.1584C18.084 44.6572 17.4355 44.0108 16.9318 43.2569C16.4303 44.0105 15.7839 44.6568 15.0303 45.1584L15.0345 45.1646Z" fill="black"/>
<path d="M13.5487 11.2899H11.291C11.2896 10.0925 10.8133 8.94461 9.96652 8.09805C9.11977 7.2515 7.97176 6.77543 6.77441 6.77433V4.51657C7.97194 4.51546 9.12011 4.03925 9.96689 3.19247C10.8137 2.34569 11.2899 1.19753 11.291 0H13.5487C13.5498 1.19753 14.0261 2.34569 14.8728 3.19247C15.7196 4.03925 16.8678 4.51546 18.0653 4.51657V6.77433C16.868 6.77543 15.72 7.2515 14.8732 8.09805C14.0265 8.94461 13.5501 10.0925 13.5487 11.2899ZM10.5189 5.64806C11.271 6.15002 11.9159 6.79636 12.4162 7.54955C12.9189 6.79308 13.5675 6.14451 14.324 5.64179C13.5681 5.14091 12.9196 4.49451 12.4162 3.7403C11.9147 4.49388 11.2683 5.14024 10.5147 5.64179L10.5189 5.64806Z" fill="black"/>
</g>
<defs>
<clipPath id="clip0_46_1605">
<rect width="70" height="70" fill="white"/>
</clipPath>
</defs>
</svg>
