<svg width="81" height="70" viewBox="0 0 81 70" fill="none" xmlns="http://www.w3.org/2000/svg">
<g clip-path="url(#clip0_46_1588)">
<path d="M31.1113 50.5557H51.8522V53.1478H31.1113V50.5557Z" fill="#004282"/>
<path d="M10.3704 6.48075V3.88866C8.65334 3.89169 7.0075 4.57513 5.79337 5.78926C4.57924 7.00339 3.8958 8.64923 3.89276 10.3663V15.7354C2.78061 16.0179 1.79433 16.663 1.08986 17.5687C0.385396 18.4745 0.00292969 19.5892 0.00292969 20.7367C0.00292969 21.8842 0.385396 22.9989 1.08986 23.9047C1.79433 24.8105 2.78061 25.4556 3.89276 25.7381V31.1072C3.8958 32.8242 4.57924 34.47 5.79337 35.6842C7.0075 36.8983 8.65334 37.5817 10.3704 37.5848V35C9.33874 34.9997 8.34937 34.5901 7.6195 33.861C6.88964 33.1319 6.47892 32.143 6.47754 31.1113V10.3663C6.47975 9.33518 6.89083 8.34706 7.62061 7.61865C8.35039 6.89024 9.33928 6.48102 10.3704 6.48075ZM2.59202 20.7409C2.59335 20.2877 2.71385 19.8429 2.94143 19.451C3.169 19.0591 3.49565 18.734 3.88858 18.5082V22.9725C3.4958 22.7469 3.16925 22.4219 2.94169 22.0302C2.71412 21.6385 2.59353 21.1939 2.59202 20.7409Z" fill="black"/>
<path d="M80.3705 20.7409C80.3667 19.5939 79.9824 18.4807 79.278 17.5756C78.5735 16.6705 77.5886 16.0247 76.4776 15.7396V10.3663C76.4746 8.64923 75.7911 7.00339 74.577 5.78926C73.3629 4.57513 71.717 3.89169 70 3.88866V6.48075C71.0304 6.48213 72.0182 6.89184 72.7471 7.62012C73.4759 8.34841 73.8864 9.3359 73.8887 10.3663V31.1113C73.8873 32.1423 73.4771 33.1305 72.7482 33.8595C72.0192 34.5885 71.0309 34.9986 70 35V37.5921C71.717 37.5891 73.3629 36.9056 74.577 35.6915C75.7911 34.4774 76.4746 32.8315 76.4776 31.1145V25.7412C77.5884 25.4561 78.5732 24.8105 79.2776 23.9056C79.9821 23.0007 80.3665 21.8877 80.3705 20.7409ZM76.4776 22.9725V18.5082C76.8713 18.7329 77.1986 19.0578 77.4262 19.4498C77.6539 19.8418 77.7737 20.2871 77.7737 20.7404C77.7737 21.1937 77.6539 21.6389 77.4262 22.031C77.1986 22.423 76.8713 22.7478 76.4776 22.9725Z" fill="black"/>
<path d="M57.0361 16.8512H62.2213V14.2591H57.0361V12.9625C57.0382 12.3262 56.8836 11.6992 56.5859 11.1367C56.2883 10.5743 55.8567 10.0939 55.3294 9.73772C54.802 9.38158 54.1951 9.16076 53.5622 9.09472C52.9294 9.02869 52.2899 9.11949 51.7005 9.3591C51.5611 8.82836 51.3102 8.33346 50.9643 7.90747C50.6184 7.48147 50.1856 7.1342 49.6948 6.88884C49.204 6.64349 48.6665 6.5057 48.1182 6.48469C47.5699 6.46368 47.0234 6.55993 46.5152 6.76701C46.3471 6.12456 46.0159 5.53644 45.5536 5.05968C45.0913 4.58291 44.5137 4.23369 43.8767 4.04585C43.2397 3.85802 42.565 3.83796 41.918 3.98761C41.271 4.13726 40.6737 4.45155 40.1839 4.9C39.6281 4.39434 38.9372 4.06132 38.1954 3.94154C37.4537 3.82175 36.6931 3.92039 36.0064 4.22541C35.3197 4.53043 34.7366 5.02866 34.3282 5.65935C33.9198 6.29004 33.7037 7.02594 33.7063 7.77731V9.07388H32.5654C30.9439 9.07279 29.3612 9.56945 28.031 10.4968C26.7009 11.4241 25.6874 12.7373 25.1276 14.2591H18.1475V16.8512H24.6366C24.6366 16.9045 24.6293 16.9557 24.6293 17.0079V24.6285H18.1475V27.2206H24.6251V31.0424C24.6267 32.2193 25.027 33.361 25.7607 34.2812L29.8103 39.3421V70H53.1475V39.1948L55.1921 35.1045C55.552 34.3842 55.7397 33.5902 55.7406 32.7851V27.2216H62.2182V24.6295H56.7979C56.9514 24.2143 57.032 23.7757 57.0361 23.333V16.8512ZM53.1475 11.666C53.4912 11.6665 53.8206 11.8033 54.0637 12.0463C54.3067 12.2894 54.4435 12.6188 54.444 12.9625V23.333C54.449 23.5063 54.4191 23.6788 54.3561 23.8403C54.2932 24.0019 54.1986 24.1492 54.0777 24.2735C53.9569 24.3978 53.8123 24.4966 53.6526 24.5641C53.493 24.6316 53.3214 24.6664 53.148 24.6664C52.9746 24.6664 52.803 24.6316 52.6433 24.5641C52.4836 24.4966 52.3391 24.3978 52.2183 24.2735C52.0974 24.1492 52.0027 24.0019 51.9398 23.8403C51.8769 23.6788 51.847 23.5063 51.8519 23.333V12.9625C51.8525 12.619 51.9891 12.2897 52.2319 12.0467C52.4747 11.8037 52.8039 11.6668 53.1475 11.666ZM47.9622 9.07388C48.3052 9.07443 48.6341 9.21063 48.877 9.45276C49.1199 9.6949 49.2572 10.0233 49.2588 10.3663V23.333C49.2637 23.5063 49.2338 23.6788 49.1709 23.8403C49.108 24.0019 49.0133 24.1492 48.8925 24.2735C48.7717 24.3978 48.6271 24.4966 48.4674 24.5641C48.3077 24.6316 48.1361 24.6664 47.9628 24.6664C47.7894 24.6664 47.6178 24.6316 47.4581 24.5641C47.2984 24.4966 47.1539 24.3978 47.033 24.2735C46.9122 24.1492 46.8175 24.0019 46.7546 23.8403C46.6917 23.6788 46.6618 23.5063 46.6667 23.333V10.3663C46.6684 10.0235 46.8055 9.69523 47.0482 9.45313C47.2909 9.21103 47.6194 9.0747 47.9622 9.07388ZM42.777 6.48179C43.1207 6.48234 43.4502 6.61912 43.6932 6.86216C43.9363 7.10519 44.073 7.43465 44.0736 7.77836V23.333C44.0785 23.5063 44.0486 23.6788 43.9857 23.8403C43.9228 24.0019 43.8281 24.1492 43.7073 24.2735C43.5864 24.3978 43.4419 24.4966 43.2822 24.5641C43.1225 24.6316 42.9509 24.6664 42.7775 24.6664C42.6042 24.6664 42.4326 24.6316 42.2729 24.5641C42.1132 24.4966 41.9686 24.3978 41.8478 24.2735C41.727 24.1492 41.6323 24.0019 41.5694 23.8403C41.5065 23.6788 41.4766 23.5063 41.4815 23.333V15.8409C41.889 15.4803 42.2153 15.0373 42.4387 14.5412C42.6622 14.0451 42.7778 13.5072 42.7778 12.9631C42.7778 12.4189 42.6622 11.881 42.4387 11.3849C42.2153 10.8888 41.889 10.4458 41.4815 10.0852V7.77731C41.482 7.43361 41.6188 7.10415 41.8619 6.86111C42.1049 6.61808 42.4344 6.4813 42.7781 6.48074L42.777 6.48179ZM38.2375 24.4321C37.4887 21.6262 36.1009 19.0316 34.1827 16.8512H38.8842V23.3288C38.8823 23.5532 38.8216 23.7732 38.7081 23.9668C38.5946 24.1604 38.4323 24.3208 38.2375 24.4321ZM36.2952 7.77731C36.2903 7.60402 36.3202 7.43149 36.3831 7.26995C36.446 7.1084 36.5407 6.96112 36.6615 6.8368C36.7824 6.71249 36.9269 6.61367 37.0866 6.54619C37.2463 6.47871 37.4179 6.44394 37.5913 6.44394C37.7646 6.44394 37.9362 6.47871 38.0959 6.54619C38.2556 6.61367 38.4002 6.71249 38.521 6.8368C38.6418 6.96112 38.7365 7.1084 38.7994 7.26995C38.8624 7.43149 38.8922 7.60402 38.8873 7.77731V9.07388H36.2952V7.77731ZM32.4066 47.9625H36.3266C35.4645 49.0755 34.9967 50.4434 34.9967 51.8512C34.9967 53.259 35.4645 54.6269 36.3266 55.7398H32.4066V47.9625ZM37.5918 51.8512C37.5932 50.8203 38.0033 49.832 38.7323 49.103C39.4612 48.3741 40.4495 47.9639 41.4804 47.9625H50.5543V55.7409H41.4804C40.4494 55.7395 39.4609 55.3292 38.7319 54.6C38.0029 53.8708 37.5929 52.8823 37.5918 51.8512ZM32.4066 67.411V58.333H50.5543V67.411H32.4066ZM53.1475 32.7861C53.1469 33.1883 53.0532 33.5849 52.8737 33.9448L50.5543 38.5825V45.3736H32.4066V38.4342L27.7887 32.6628C27.4221 32.2026 27.2222 31.6318 27.2213 31.0434V17.009C27.2212 16.3072 27.3593 15.6122 27.6279 14.9639C27.8964 14.3155 28.29 13.7264 28.7863 13.2302C29.2826 12.734 29.8718 12.3405 30.5202 12.0721C31.1686 11.8037 31.8636 11.6657 32.5654 11.666H38.8904C39.0637 11.661 39.2363 11.6909 39.3978 11.7538C39.5594 11.8168 39.7066 11.9114 39.831 12.0323C39.9553 12.1531 40.0541 12.2977 40.1216 12.4574C40.189 12.617 40.2238 12.7886 40.2238 12.962C40.2238 13.1354 40.189 13.307 40.1216 13.4667C40.0541 13.6264 39.9553 13.7709 39.831 13.8917C39.7066 14.0126 39.5594 14.1073 39.3978 14.1702C39.2363 14.2331 39.0637 14.263 38.8904 14.2581H31.11V17.3924L31.4903 17.7727C33.0182 19.2921 34.2297 21.0993 35.0546 23.0899C35.8795 25.0805 36.3016 27.2149 36.2963 29.3697V31.1103H38.8884V29.3697C38.8828 28.5881 38.8295 27.8076 38.7285 27.0325C39.2677 26.8677 39.7644 26.587 40.1839 26.2103C40.8907 26.8606 41.8161 27.2215 42.7765 27.2215C43.7369 27.2215 44.6623 26.8606 45.3691 26.2103C46.0759 26.8606 47.0013 27.2215 47.9617 27.2215C48.9222 27.2215 49.8475 26.8606 50.5543 26.2103C51.2625 26.8582 52.1867 27.2187 53.1464 27.2216L53.1475 32.7861Z" fill="black"/>
<path d="M14.2594 41.4776C12.8854 41.4762 11.5679 40.9301 10.5959 39.9588C9.62394 38.9876 9.07671 37.6706 9.07422 36.2966V5.18522C9.07422 3.81002 9.62052 2.49114 10.5929 1.51872C11.5654 0.546299 12.8842 0 14.2594 0C15.6347 0 16.9535 0.546299 17.9259 1.51872C18.8984 2.49114 19.4447 3.81002 19.4447 5.18522V36.2966C19.4422 37.6706 18.8949 38.9876 17.9229 39.9588C16.9509 40.9301 15.6335 41.4762 14.2594 41.4776Z" fill="#004282"/>
<path d="M66.112 41.4776C64.7379 41.4762 63.4205 40.9301 62.4485 39.9588C61.4765 38.9876 60.9292 37.6706 60.9268 36.2966V5.18522C60.9268 3.81002 61.4731 2.49114 62.4455 1.51872C63.4179 0.546299 64.7368 0 66.112 0C67.4872 0 68.8061 0.546299 69.7785 1.51872C70.7509 2.49114 71.2972 3.81002 71.2972 5.18522V36.2966C71.2947 37.6706 70.7475 38.9876 69.7755 39.9588C68.8035 40.9301 67.486 41.4762 66.112 41.4776Z" fill="#004282"/>
</g>
<defs>
<clipPath id="clip0_46_1588">
<rect width="80.3705" height="70" fill="white"/>
</clipPath>
</defs>
</svg>
