<svg width="72" height="70" viewBox="0 0 72 70" fill="none" xmlns="http://www.w3.org/2000/svg">
<g clip-path="url(#clip0_46_1543)">
<path d="M11.3085 70C15.6733 70 19.2117 66.2089 19.2117 61.5323C19.2117 56.8557 15.6733 53.0645 11.3085 53.0645C6.94367 53.0645 3.40527 56.8557 3.40527 61.5323C3.40527 66.2089 6.94367 70 11.3085 70Z" fill="#004282"/>
<path d="M27.6797 70C32.3563 70 36.1474 66.2089 36.1474 61.5323C36.1474 56.8557 32.3563 53.0645 27.6797 53.0645C23.0031 53.0645 19.2119 56.8557 19.2119 61.5323C19.2119 66.2089 23.0031 70 27.6797 70Z" fill="#004282"/>
<path d="M44.0507 70C48.4155 70 51.9539 66.2089 51.9539 61.5323C51.9539 56.8557 48.4155 53.0645 44.0507 53.0645C39.6859 53.0645 36.1475 56.8557 36.1475 61.5323C36.1475 66.2089 39.6859 70 44.0507 70Z" fill="#004282"/>
<path d="M59.8573 70C64.2222 70 67.7606 66.2089 67.7606 61.5323C67.7606 56.8557 64.2222 53.0645 59.8573 53.0645C55.4925 53.0645 51.9541 56.8557 51.9541 61.5323C51.9541 66.2089 55.4925 70 59.8573 70Z" fill="#004282"/>
<path d="M39.0173 17.2132H18.356C17.7472 17.2228 17.1425 17.1111 16.5772 16.8847C16.012 16.6583 15.4974 16.3218 15.0635 15.8946C14.6296 15.4674 14.2849 14.9582 14.0497 14.3965C13.8145 13.8349 13.6934 13.2321 13.6934 12.6231C13.6934 12.0142 13.8145 11.4114 14.0497 10.8498C14.2849 10.2881 14.6296 9.77889 15.0635 9.35172C15.4974 8.92454 16.012 8.58796 16.5772 8.36158C17.1425 8.13519 17.7472 8.02352 18.356 8.03307H39.0173C39.6259 8.03366 40.2093 8.27568 40.6397 8.70601C41.07 9.13634 41.312 9.71982 41.3126 10.3284V14.9202C41.3114 15.5283 41.0691 16.1112 40.6389 16.5411C40.2086 16.9709 39.6255 17.2126 39.0173 17.2132Z" fill="#004282"/>
<path d="M10.3282 18.3615H6.88574V32.1356H22.9507V30.984C22.9466 27.6376 21.6153 24.4294 19.2491 22.0631C16.8828 19.6969 13.6746 18.3656 10.3282 18.3615Z" fill="#004282"/>
<path d="M63.5894 52.7868L61.2952 50.4915H65.4105C66.3231 50.4903 67.198 50.1272 67.8433 49.4819C68.4886 48.8366 68.8517 47.9617 68.8529 47.049V43.6337C68.8529 42.3911 68.4167 41.1879 67.6205 40.2338C66.8243 39.2798 65.7185 38.6354 64.496 38.4131C58.4484 37.3114 52.5264 35.6067 46.8187 33.3245C44.5108 32.4105 42.5319 30.8222 41.1402 28.7667C39.7485 26.7112 39.0086 24.2839 39.0171 21.8016V17.2132C39.6257 17.2126 40.2091 16.9706 40.6395 16.5403C41.0698 16.11 41.3118 15.5265 41.3124 14.9179V10.3284C41.3118 9.71981 41.0698 9.13634 40.6395 8.70601C40.2091 8.27568 39.6257 8.03366 39.0171 8.03306V0H35.5735C34.1849 0.00158544 32.8204 0.363271 31.6133 1.04974C30.4062 1.7362 29.3978 2.72398 28.6865 3.91661C27.9754 2.72447 26.9675 1.73701 25.7611 1.05057C24.5546 0.364134 23.1908 0.00217078 21.8027 0H4.59065V47.049C4.59184 47.9617 4.95491 48.8366 5.60023 49.4819C6.24555 50.1272 7.12044 50.4903 8.03306 50.4915V52.7868H0V55.0821H71.1471V52.7868H63.5894ZM60.3445 52.7868H27.9435L25.0747 50.4915H58.0492L60.3445 52.7868ZM66.5542 47.049C66.5539 47.3532 66.4329 47.6448 66.2179 47.8598C66.0028 48.0749 65.7112 48.1958 65.4071 48.1961H41.4276C41.6937 46.9012 42.3982 45.7376 43.4221 44.9014C44.4461 44.0652 45.727 43.6075 47.049 43.6055H66.5553C66.5553 43.6145 66.5553 43.6235 66.5553 43.6326L66.5542 47.049ZM39.0171 14.9179H25.2429V10.3284H39.0171V14.9179ZM18.3558 14.9179C17.747 14.9179 17.1632 14.6761 16.7328 14.2456C16.3023 13.8152 16.0605 13.2313 16.0605 12.6226C16.0605 12.0138 16.3023 11.43 16.7328 10.9995C17.1632 10.5691 17.747 10.3273 18.3558 10.3273V14.9179ZM20.6613 10.3284H22.9566V14.919H20.6613V10.3284ZM35.5735 2.29532H36.7206V8.03306H29.8335C29.8353 6.51148 30.4407 5.05276 31.5169 3.97705C32.593 2.90134 34.052 2.29652 35.5735 2.29532ZM6.8871 47.049V43.6066H34.4265V41.3113H6.8871V2.29532H21.8027C23.3239 2.29712 24.7823 2.9022 25.858 3.97785C26.9336 5.0535 27.5387 6.51187 27.5405 8.03306H18.3603C17.1554 8.05196 16.0063 8.54387 15.1609 9.40262C14.3155 10.2614 13.8417 11.4181 13.8417 12.6231C13.8417 13.8282 14.3155 14.9849 15.1609 15.8437C16.0063 16.7024 17.1554 17.1943 18.3603 17.2132H36.7218V21.8039H33.2782V24.0992H36.9002C37.0098 24.8069 37.1705 25.5057 37.3811 26.1902L33.9748 27.6003L34.8544 29.7206L38.2335 28.3206C38.5536 28.9707 38.9215 29.596 39.3344 30.1915L38.6953 30.8305C36.8315 32.7044 34.6145 34.19 32.1726 35.2012C29.7307 36.2125 27.1125 36.7293 24.4695 36.7218C22.8804 36.7211 21.3205 36.295 19.9518 35.4878C18.5831 34.6805 17.4554 33.5215 16.686 32.1311H14.1265C14.978 34.1724 16.415 35.9158 18.2561 37.1414C20.0972 38.3671 22.26 39.0202 24.4718 39.0182C27.4162 39.0263 30.3329 38.4503 33.0531 37.3233C35.7733 36.1963 38.2429 34.5409 40.3189 32.4529L40.7987 31.9742C41.3456 32.5435 41.9381 33.0672 42.5702 33.5402L41.4298 36.295L43.5502 37.1745L44.5381 34.7877C45.0023 35.0384 45.4794 35.2645 45.9674 35.4652C46.3242 35.6085 46.6911 35.7282 47.0502 35.8671V37.8756H49.3455V36.7116C54.1439 38.4281 59.0736 39.7526 64.0861 40.6723C64.5908 40.7652 65.0634 40.9855 65.459 41.3124H47.049C45.1192 41.3161 43.2551 42.0139 41.7972 43.2784C40.3393 44.5428 39.385 46.2896 39.1085 48.1995H8.03306C7.72872 48.1983 7.43725 48.0766 7.22247 47.861C7.00769 47.6453 6.88709 47.3534 6.8871 47.049ZM10.3295 50.4915H21.4019L24.2742 52.7868H10.3284L10.3295 50.4915Z" fill="black"/>
<path d="M59.6716 57.3774C58.6568 57.3804 57.6716 57.72 56.8705 58.3429C56.0694 58.9659 55.4976 59.837 55.2447 60.8198H48.0335C47.7831 59.8358 47.2119 58.9632 46.4102 58.34C45.6085 57.7168 44.622 57.3785 43.6066 57.3785C42.5912 57.3785 41.6047 57.7168 40.803 58.34C40.0013 58.9632 39.4301 59.8358 39.1797 60.8198H31.9685C31.7181 59.8358 31.1469 58.9632 30.3452 58.34C29.5435 57.7168 28.557 57.3785 27.5416 57.3785C26.5262 57.3785 25.5397 57.7168 24.738 58.34C23.9363 58.9632 23.3651 59.8358 23.1147 60.8198H15.9024C15.652 59.8358 15.0808 58.9632 14.2791 58.34C13.4774 57.7168 12.4909 57.3785 11.4755 57.3785C10.4601 57.3785 9.47357 57.7168 8.67188 58.34C7.87019 58.9632 7.299 59.8358 7.04855 60.8198H0V63.1152H7.04855C7.299 64.0992 7.87019 64.9718 8.67188 65.595C9.47357 66.2182 10.4601 66.5565 11.4755 66.5565C12.4909 66.5565 13.4774 66.2182 14.2791 65.595C15.0808 64.9718 15.652 64.0992 15.9024 63.1152H23.1135C23.364 64.0992 23.9352 64.9718 24.7369 65.595C25.5386 66.2182 26.5251 66.5565 27.5405 66.5565C28.5559 66.5565 29.5424 66.2182 30.3441 65.595C31.1458 64.9718 31.717 64.0992 31.9674 63.1152H39.1774C39.4279 64.0992 39.9991 64.9718 40.8008 65.595C41.6024 66.2182 42.5889 66.5565 43.6044 66.5565C44.6198 66.5565 45.6063 66.2182 46.408 65.595C47.2096 64.9718 47.7808 64.0992 48.0313 63.1152H55.2424C55.4929 64.0992 56.0641 64.9718 56.8658 65.595C57.6674 66.2182 58.6539 66.5565 59.6694 66.5565C60.6848 66.5565 61.6713 66.2182 62.473 65.595C63.2746 64.9718 63.8458 64.0992 64.0963 63.1152H71.1448V60.8198H64.0997C63.8467 59.8368 63.2748 58.9656 62.4734 58.3426C61.6721 57.7196 60.6866 57.3801 59.6716 57.3774ZM59.6716 59.6727C60.0726 59.674 60.4662 59.7806 60.813 59.982C61.1598 60.1833 61.4475 60.4722 61.6474 60.8198H57.6935C57.8934 60.4717 58.1814 60.1823 58.5287 59.9809C58.876 59.7795 59.2702 59.6732 59.6716 59.6727ZM43.6066 59.6727C44.0076 59.674 44.4012 59.7806 44.748 59.982C45.0948 60.1833 45.3825 60.4722 45.5824 60.8198H41.6308C41.8304 60.472 42.1181 60.1828 42.465 59.9815C42.8118 59.7801 43.2056 59.6736 43.6066 59.6727ZM27.5416 59.6727C27.9426 59.674 28.3362 59.7806 28.683 59.982C29.0298 60.1833 29.3175 60.4722 29.5174 60.8198H25.5658C25.7653 60.4722 26.0529 60.1831 26.3995 59.9818C26.7461 59.7804 27.1396 59.6738 27.5405 59.6727H27.5416ZM11.4766 59.6727C11.8776 59.674 12.2712 59.7806 12.618 59.982C12.9648 60.1833 13.2525 60.4722 13.4524 60.8198H9.50081C9.70061 60.4724 9.98819 60.1836 10.3348 59.9822C10.6813 59.7809 11.0747 59.6742 11.4755 59.6727H11.4766ZM11.4766 64.2634C11.0756 64.2621 10.682 64.1555 10.3352 63.9542C9.98846 63.7528 9.7007 63.4639 9.50081 63.1163H13.4524C13.2528 63.4645 12.965 63.754 12.618 63.9556C12.2709 64.1571 11.8768 64.2637 11.4755 64.2645L11.4766 64.2634ZM27.5416 64.2634C27.1406 64.2621 26.747 64.1555 26.4002 63.9542C26.0535 63.7528 25.7657 63.4639 25.5658 63.1163H29.5174C29.3178 63.4645 29.03 63.754 28.683 63.9556C28.3359 64.1571 27.9418 64.2637 27.5405 64.2645L27.5416 64.2634ZM43.6066 64.2634C43.2056 64.2621 42.812 64.1555 42.4652 63.9542C42.1185 63.7528 41.8307 63.4639 41.6308 63.1163H45.5824C45.3829 63.4643 45.0953 63.7537 44.7484 63.9553C44.4016 64.1568 44.0078 64.2635 43.6066 64.2645V64.2634ZM59.6716 64.2634C59.2706 64.2621 58.877 64.1555 58.5302 63.9542C58.1835 63.7528 57.8957 63.4639 57.6958 63.1163H61.6474C61.4479 63.4643 61.1603 63.7537 60.8134 63.9553C60.4666 64.1568 60.0728 64.2635 59.6716 64.2645V64.2634Z" fill="black"/>
<path d="M39.5354 40.6452H37.2773V42.9032H39.5354V40.6452Z" fill="black"/>
</g>
<defs>
<clipPath id="clip0_46_1543">
<rect width="71.1471" height="70" fill="white"/>
</clipPath>
</defs>
</svg>
