<svg width="81" height="70" viewBox="0 0 81 70" fill="none" xmlns="http://www.w3.org/2000/svg">
<g clip-path="url(#clip0_46_1555)">
<path d="M29.6156 43.0816H12.788C11.5511 43.0625 10.3713 42.5577 9.50335 41.6762C8.63541 40.7947 8.14893 39.6072 8.14893 38.3702C8.14893 37.1331 8.63541 35.9457 9.50335 35.0642C10.3713 34.1827 11.5511 33.6779 12.788 33.6587H22.2109C22.7464 33.6587 23.26 33.446 23.6387 33.0673C24.0174 32.6886 24.2302 32.175 24.2302 31.6394C24.2302 31.1039 24.0174 30.5903 23.6387 30.2116C23.26 29.8329 22.7464 29.6202 22.2109 29.6202H0V26.9229H22.212C23.4489 26.9421 24.6287 27.4469 25.4966 28.3284C26.3646 29.2099 26.8511 30.3973 26.8511 31.6344C26.8511 32.8714 26.3646 34.0589 25.4966 34.9404C24.6287 35.8218 23.4489 36.3267 22.212 36.3458H12.788C12.2524 36.3458 11.7388 36.5586 11.3601 36.9372C10.9815 37.3159 10.7687 37.8296 10.7687 38.3651C10.7687 38.9006 10.9815 39.4142 11.3601 39.7929C11.7388 40.1716 12.2524 40.3844 12.788 40.3844H29.6156V43.0816Z" fill="#004282"/>
<path d="M80.7699 56.5431H67.9808C67.3559 56.5527 66.7354 56.438 66.1553 56.2056C65.5752 55.9732 65.0471 55.6277 64.6018 55.1892C64.1565 54.7508 63.8029 54.2281 63.5615 53.6517C63.3201 53.0752 63.1958 52.4566 63.1958 51.8316C63.1958 51.2067 63.3201 50.588 63.5615 50.0116C63.8029 49.4351 64.1565 48.9125 64.6018 48.474C65.0471 48.0356 65.5752 47.6901 66.1553 47.4576C66.7354 47.2252 67.3559 47.1105 67.9808 47.1202H72.0193C72.5549 47.1202 73.0685 46.9074 73.4472 46.5287C73.8258 46.1501 74.0386 45.6365 74.0386 45.1009C74.0386 44.5654 73.8258 44.0518 73.4472 43.6731C73.0685 43.2944 72.5549 43.0816 72.0193 43.0816H60.5771V40.3844H72.0193C73.2563 40.4035 74.436 40.9083 75.304 41.7898C76.1719 42.6713 76.6584 43.8587 76.6584 45.0958C76.6584 46.3329 76.1719 47.5203 75.304 48.4018C74.436 49.2833 73.2563 49.7881 72.0193 49.8073H67.9808C67.4452 49.8073 66.9316 50.02 66.5529 50.3987C66.1742 50.7774 65.9615 51.291 65.9615 51.8266C65.9615 52.3621 66.1742 52.8757 66.5529 53.2544C66.9316 53.6331 67.4452 53.8458 67.9808 53.8458H80.7699V56.5431Z" fill="#004282"/>
<path d="M49.8084 70.0045H27.5964C26.3595 69.9854 25.1797 69.4806 24.3118 68.5991C23.4439 67.7176 22.9574 66.5301 22.9574 65.2931C22.9574 64.056 23.4439 62.8686 24.3118 61.9871C25.1797 61.1056 26.3595 60.6008 27.5964 60.5816H33.6542C34.1898 60.5816 34.7034 60.3689 35.0821 59.9902C35.4608 59.6115 35.6735 59.0979 35.6735 58.5624C35.6735 58.0268 35.4608 57.5132 35.0821 57.1345C34.7034 56.7558 34.1898 56.5431 33.6542 56.5431H8.07715V53.8458H33.6542C34.8912 53.865 36.0709 54.3698 36.9389 55.2513C37.8068 56.1328 38.2933 57.3202 38.2933 58.5573C38.2933 59.7943 37.8068 60.9818 36.9389 61.8633C36.0709 62.7448 34.8912 63.2496 33.6542 63.2687H27.5964C27.0609 63.2687 26.5473 63.4815 26.1686 63.8602C25.7899 64.2388 25.5771 64.7525 25.5771 65.288C25.5771 65.8236 25.7899 66.3371 26.1686 66.7158C26.5473 67.0945 27.0609 67.3073 27.5964 67.3073H49.8084V70.0045Z" fill="#004282"/>
<path d="M78.0816 13.4614V10.7698H74.0386V9.4229C74.0386 6.92379 73.0458 4.52704 71.2786 2.7599C69.5115 0.992767 67.1148 0 64.6156 0C62.1165 0 59.7198 0.992767 57.9526 2.7599C56.1855 4.52704 55.1927 6.92379 55.1927 9.4229V10.7687H51.1542V9.4229C51.1542 6.92379 50.1614 4.52704 48.3943 2.7599C46.6272 0.992767 44.2304 0 41.7313 0C39.2322 0 36.8354 0.992767 35.0683 2.7599C33.3012 4.52704 32.3084 6.92379 32.3084 9.4229V10.7687H0V13.4614H32.3084V44.4229H35.0011V40.3844H55.1939V44.4229H57.8866V13.4614H78.0816ZM57.8889 9.4229C57.8773 8.53167 58.0429 7.64702 58.376 6.82029C58.709 5.99356 59.203 5.2412 59.8291 4.60688C60.4553 3.97257 61.2012 3.46892 62.0235 3.12517C62.8459 2.78141 63.7283 2.6044 64.6196 2.6044C65.5109 2.6044 66.3933 2.78141 67.2157 3.12517C68.038 3.46892 68.7839 3.97257 69.4101 4.60688C70.0362 5.2412 70.5302 5.99356 70.8632 6.82029C71.1963 7.64702 71.3619 8.53167 71.3503 9.4229V10.7687H57.8844L57.8889 9.4229ZM35.0045 9.4229C34.993 8.53167 35.1585 7.64702 35.4916 6.82029C35.8247 5.99356 36.3186 5.2412 36.9448 4.60688C37.5709 3.97257 38.3168 3.46892 39.1392 3.12517C39.9615 2.78141 40.8439 2.6044 41.7352 2.6044C42.6266 2.6044 43.509 2.78141 44.3313 3.12517C45.1537 3.46892 45.8996 3.97257 46.5257 4.60688C47.1519 5.2412 47.6458 5.99356 47.9789 6.82029C48.312 7.64702 48.4775 8.53167 48.466 9.4229V10.7687H35L35.0045 9.4229ZM35.0045 26.9229H55.1973V30.9615H35L35.0045 26.9229ZM35.0045 24.2302V20.1927H55.1973V24.2313L35.0045 24.2302ZM35.0045 37.6916V33.6542H55.1973V37.6927L35.0045 37.6916ZM55.1973 17.4989H35V13.4614H55.1927L55.1973 17.4989Z" fill="#333333"/>
<path d="M24.2313 28.9433C24.2307 29.4787 24.0178 29.9919 23.6392 30.3705C23.2606 30.749 22.7474 30.962 22.212 30.9626H12.788C11.5511 30.9817 10.3713 31.4866 9.50335 32.368C8.63541 33.2495 8.14893 34.437 8.14893 35.674C8.14893 36.9111 8.63541 38.0985 9.50335 38.98C10.3713 39.8615 11.5511 40.3663 12.788 40.3855H29.6156V37.6927H12.788C12.2524 37.6927 11.7388 37.48 11.3601 37.1013C10.9815 36.7226 10.7687 36.209 10.7687 35.6735C10.7687 35.1379 10.9815 34.6243 11.3601 34.2456C11.7388 33.8669 12.2524 33.6542 12.788 33.6542H22.2109C23.4478 33.635 24.6276 33.1302 25.4955 32.2487C26.3635 31.3673 26.8499 30.1798 26.8499 28.9427C26.8499 27.7057 26.3635 26.5182 25.4955 25.6368C24.6276 24.7553 23.4478 24.2504 22.2109 24.2313H0V26.924H22.212C22.7474 26.9246 23.2606 27.1376 23.6392 27.5161C24.0178 27.8947 24.2307 28.4079 24.2313 28.9433Z" fill="#333333"/>
<path d="M67.9808 51.1542C67.4452 51.1542 66.9316 50.9414 66.5529 50.5628C66.1742 50.1841 65.9615 49.6705 65.9615 49.1349C65.9615 48.5994 66.1742 48.0858 66.5529 47.7071C66.9316 47.3284 67.4452 47.1156 67.9808 47.1156H72.0193C73.2563 47.0965 74.436 46.5917 75.304 45.7102C76.1719 44.8287 76.6584 43.6413 76.6584 42.4042C76.6584 41.1671 76.1719 39.9797 75.304 39.0982C74.436 38.2167 73.2563 37.7119 72.0193 37.6927H60.5771V40.3855H72.0193C72.5549 40.3855 73.0685 40.5982 73.4472 40.9769C73.8258 41.3556 74.0386 41.8692 74.0386 42.4048C74.0386 42.9403 73.8258 43.4539 73.4472 43.8326C73.0685 44.2113 72.5549 44.424 72.0193 44.424H67.9808C67.3559 44.4144 66.7354 44.5291 66.1553 44.7615C65.5752 44.9939 65.0471 45.3394 64.6018 45.7779C64.1565 46.2164 63.8029 46.739 63.5615 47.3154C63.3201 47.8919 63.1958 48.5106 63.1958 49.1355C63.1958 49.7604 63.3201 50.3791 63.5615 50.9555C63.8029 51.532 64.1565 52.0546 64.6018 52.4931C65.0471 52.9315 65.5752 53.277 66.1553 53.5095C66.7354 53.7419 67.3559 53.8566 67.9808 53.8469H80.7699V51.1542H67.9808Z" fill="#333333"/>
<path d="M25.5771 62.5964C25.5777 62.061 25.7907 61.5477 26.1692 61.1692C26.5478 60.7906 27.0611 60.5777 27.5964 60.5771H33.6542C34.8912 60.5579 36.0709 60.0531 36.9389 59.1717C37.8068 58.2902 38.2933 57.1027 38.2933 55.8657C38.2933 54.6286 37.8068 53.4411 36.9389 52.5596C36.0709 51.6782 34.8912 51.1734 33.6542 51.1542H8.07715V53.8469H33.6542C34.1898 53.8469 34.7034 54.0597 35.0821 54.4384C35.4608 54.8171 35.6735 55.3307 35.6735 55.8662C35.6735 56.4018 35.4608 56.9154 35.0821 57.2941C34.7034 57.6727 34.1898 57.8855 33.6542 57.8855H27.5964C26.9716 57.8758 26.351 57.9905 25.7709 58.223C25.1908 58.4554 24.6628 58.8009 24.2175 59.2393C23.7722 59.6778 23.4185 60.2005 23.1771 60.7769C22.9358 61.3533 22.8114 61.972 22.8114 62.5969C22.8114 63.2219 22.9358 63.8406 23.1771 64.417C23.4185 64.9934 23.7722 65.5161 24.2175 65.9545C24.6628 66.393 25.1908 66.7385 25.7709 66.9709C26.351 67.2034 26.9716 67.3181 27.5964 67.3084H49.8084V64.6157H27.5964C27.0611 64.6151 26.5478 64.4021 26.1692 64.0236C25.7907 63.645 25.5777 63.1318 25.5771 62.5964Z" fill="#333333"/>
</g>
<defs>
<clipPath id="clip0_46_1555">
<rect width="80.7698" height="70" fill="white"/>
</clipPath>
</defs>
</svg>
