<svg width="50" height="70" viewBox="0 0 50 70" fill="none" xmlns="http://www.w3.org/2000/svg">
<g clip-path="url(#clip0_46_1522)">
<path d="M26.2675 2.50133L20.9629 0.571916C19.0522 -0.123776 16.9683 -0.186432 15.0192 0.393205C13.0701 0.972843 11.3591 2.16403 10.1391 3.7908L9.56502 4.55406C8.47993 4.7004 7.4847 5.23519 6.76381 6.0593C6.04292 6.8834 5.64525 7.94091 5.64453 9.03582V11.2937C5.76641 13.2606 6.16987 15.1999 6.84258 17.0522L7.10089 17.7666C7.37167 17.183 7.80341 16.6888 8.34536 16.3421C8.88732 15.9954 9.51697 15.8107 10.1603 15.8095H11.2956C11.3133 14.7791 11.6128 13.7733 12.1617 12.9011C12.7106 12.0289 13.4879 11.3237 14.4093 10.8621L15.0758 10.5294C15.6053 11.1249 16.255 11.6016 16.9821 11.9279C17.7091 12.2542 18.497 12.4229 19.2939 12.4227H20.5143C20.7811 13.1756 21.3053 13.81 21.9944 14.2139C22.6835 14.6179 23.4932 14.7653 24.2805 14.6303C25.0677 14.4952 25.782 14.0864 26.2971 13.4759C26.8122 12.8654 27.095 12.0925 27.0956 11.2937V15.8095H28.2245C28.8759 15.8101 29.5133 15.9986 30.0602 16.3526C30.607 16.7065 31.0401 17.2108 31.3073 17.8048H31.3499L32.5394 13.3496C32.6704 12.8246 32.7368 12.2856 32.7371 11.7444C32.7337 9.72559 32.1111 7.75637 30.9532 6.10255C29.7954 4.44873 28.158 3.18992 26.2622 2.49602L26.2675 2.50133Z" fill="#004282"/>
<path d="M25.9679 55.3216C25.298 55.3216 24.6432 55.1229 24.0863 54.7508C23.5293 54.3786 23.0952 53.8497 22.8389 53.2308C22.5825 52.6119 22.5155 51.931 22.6461 51.274C22.7768 50.617 23.0994 50.0135 23.573 49.5399C24.0467 49.0662 24.6502 48.7436 25.3072 48.613C25.9641 48.4823 26.6451 48.5493 27.264 48.8057C27.8828 49.062 28.4118 49.4961 28.784 50.0531C29.1561 50.6101 29.3547 51.2649 29.3547 51.9347C29.3536 52.8326 28.9964 53.6934 28.3615 54.3283C27.7266 54.9632 26.8658 55.3204 25.9679 55.3216Z" fill="#004282"/>
<path d="M36.1571 28.2258C32.7237 28.2208 29.4179 29.5269 26.9151 31.8773L24.6827 31.6913L24.2267 28.9508C26.0602 27.715 27.3786 25.8514 27.9335 23.7111H28.2301C29.4283 23.7111 30.5774 23.2351 31.4247 22.3878C32.272 21.5405 32.748 20.3914 32.748 19.1932C32.748 17.9949 32.272 16.8458 31.4247 15.9985C30.5774 15.1512 29.4283 14.6753 28.2301 14.6753V11.2916C28.2289 10.0927 27.7517 8.94336 26.9032 8.09632C26.0548 7.24928 24.9047 6.7739 23.7058 6.77475V9.03371C24.1523 9.03371 24.5889 9.16613 24.9602 9.41423C25.3315 9.66233 25.6209 10.015 25.7918 10.4275C25.9627 10.8401 26.0074 11.2941 25.9203 11.7321C25.8332 12.1701 25.6181 12.5724 25.3023 12.8882C24.9866 13.2039 24.5843 13.419 24.1463 13.5061C23.7083 13.5932 23.2543 13.5485 22.8417 13.3776C22.4291 13.2067 22.0765 12.9173 21.8284 12.546C21.5803 12.1747 21.4479 11.7382 21.4479 11.2916V9.03264H19.1932V11.2842C18.3725 11.2688 17.5718 11.0286 16.8783 10.5896C16.1847 10.1506 15.625 9.52969 15.2599 8.79452L14.5636 7.39875L12.5439 8.4097L13.2412 9.80547C13.2986 9.91922 13.3709 10.0181 13.4336 10.1318C12.6163 10.6223 11.9131 11.2816 11.371 12.0657C10.8289 12.8498 10.4604 13.7405 10.2902 14.6784H10.1659C8.96763 14.6784 7.81849 15.1544 6.97121 16.0017C6.12394 16.849 5.64795 17.9981 5.64795 19.1964C5.64795 20.3946 6.12394 21.5437 6.97121 22.391C7.81849 23.2383 8.96763 23.7143 10.1659 23.7143H10.4624C11.017 25.8548 12.3355 27.7185 14.1693 28.954L13.7132 31.6902L9.32287 32.0559C6.78698 32.2799 4.42589 33.442 2.70162 35.3149C0.977351 37.1878 0.0139831 39.6367 2.43917e-05 42.1824V49.5971C-0.00237186 50.4871 0.171811 51.3688 0.512487 52.191C0.853164 53.0132 1.35356 53.7597 1.98472 54.3872L9.69387 62.0974L9.16873 62.6225C8.56465 63.2271 8.15334 63.9971 7.98679 64.8354C7.82024 65.6736 7.90592 66.5424 8.23301 67.332C8.56009 68.1215 9.1139 68.7964 9.82443 69.2713C10.535 69.7462 11.3703 69.9998 12.225 70C12.3206 70 12.411 69.9787 12.5056 69.9734V70H32.7416V57.0214L40.2552 54.6306C43.3299 53.6529 45.9537 51.6077 47.6524 48.8646C49.3511 46.1216 50.0128 42.8614 49.518 39.6731C49.0232 36.4848 47.4044 33.5785 44.9541 31.4794C42.5038 29.3802 39.3836 28.2266 36.1571 28.2269V28.2258ZM7.90371 19.19C7.90428 18.5913 8.14234 18.0173 8.56566 17.594C8.98897 17.1707 9.56295 16.9326 10.1616 16.9321V21.4479C9.56368 21.4473 8.99035 21.2098 8.56715 20.7874C8.14396 20.365 7.9054 19.7921 7.90371 19.1942V19.19ZM30.4848 19.19C30.4842 19.7886 30.2461 20.3626 29.8228 20.7859C29.3995 21.2092 28.8255 21.4473 28.2269 21.4479V16.9363C28.8254 16.9372 29.3991 17.1754 29.8221 17.5987C30.2452 18.0219 30.4831 18.5958 30.4837 19.1942L30.4848 19.19ZM12.4195 21.4521V15.9084C12.4168 15.0791 12.6439 14.2653 13.0754 13.5571C13.507 12.849 14.1262 12.2742 14.8645 11.8965C16.0924 12.9638 17.6651 13.5506 19.292 13.5484H19.8182C20.1096 14.0644 20.5012 14.5168 20.97 14.8792C21.4388 15.2416 21.9753 15.5065 22.548 15.6585C23.1207 15.8104 23.718 15.8463 24.3048 15.7639C24.8916 15.6816 25.4559 15.4828 25.9647 15.1791V21.4511C25.9647 23.2477 25.251 24.9707 23.9806 26.2411C22.7102 27.5116 20.9872 28.2253 19.1905 28.2253C17.3939 28.2253 15.6708 27.5116 14.4004 26.2411C13.13 24.9707 12.4163 23.2477 12.4163 21.4511L12.4195 21.4521ZM19.1932 30.4879C20.1849 30.486 21.1694 30.3201 22.107 29.9968L22.5471 32.6406C22.3003 33.3328 21.8455 33.9317 21.2449 34.3552C20.6444 34.7787 19.9275 35.006 19.1926 35.006C18.4578 35.006 17.7409 34.7787 17.1404 34.3552C16.5398 33.9317 16.085 33.3328 15.8382 32.6406L16.2783 29.9979C17.2157 30.322 18.2003 30.4883 19.1921 30.4901L19.1932 30.4879ZM9.50465 34.3149L13.945 33.9449C14.4154 34.9389 15.1583 35.7788 16.0874 36.367C17.0165 36.9552 18.0936 37.2674 19.1932 37.2674C20.2928 37.2674 21.3698 36.9552 22.2989 36.367C23.228 35.7788 23.971 34.9389 24.4414 33.9449L25.0792 33.9981C24.2964 35.1196 23.6872 36.3528 23.2721 37.656L18.1982 53.6016L15.8042 55.9955L9.03585 49.2102V39.5163H6.7737V44.0321H2.25792V42.1824C2.2692 40.2032 3.01823 38.2993 4.35858 36.843C5.69892 35.3867 7.53423 34.4826 9.50571 34.3074L9.50465 34.3149ZM21.4511 59.3718L20.4582 58.3789C19.7851 57.7186 18.9776 57.211 18.0908 56.8906L19.1932 55.7882L22.1112 58.7095L21.4511 59.3718ZM2.25792 49.5971V46.2911H6.7737V49.2112C6.77606 49.809 7.01358 50.3818 7.43491 50.8058L15.3386 58.7095H15.8063C16.9521 58.7126 18.0503 59.1675 18.8626 59.9756L19.8555 60.9684C20.0039 61.1166 20.1218 61.2925 20.2021 61.4862C20.2825 61.68 20.3239 61.8876 20.3239 62.0974C20.3239 62.3071 20.2825 62.5148 20.2021 62.7085C20.1218 62.9023 20.0039 63.0782 19.8555 63.2263L18.0653 65.0165C17.7608 65.3061 17.3566 65.4676 16.9363 65.4676C16.5161 65.4676 16.1119 65.3061 15.8074 65.0165L3.58246 52.7915C3.16141 52.3731 2.82753 51.8754 2.60017 51.327C2.37281 50.7787 2.25648 50.1907 2.25792 49.5971ZM10.1616 65.6777C10.1632 65.1307 10.3801 64.6064 10.7654 64.2181L11.2906 63.693L14.2107 66.6132L13.6856 67.1383C13.3969 67.4269 13.0291 67.6235 12.6287 67.7031C12.2283 67.7827 11.8132 67.7419 11.4361 67.5856C11.0589 67.4294 10.7365 67.1649 10.5097 66.8255C10.2828 66.4861 10.1617 66.087 10.1616 65.6788V65.6777ZM30.4837 67.7411H16.2741L16.3325 67.6826C16.5317 67.7174 16.7332 67.737 16.9353 67.7411C17.4425 67.7434 17.9452 67.6449 18.414 67.4513C18.8828 67.2577 19.3085 66.9728 19.6662 66.6132L21.4564 64.823C21.8155 64.466 22.1003 64.0412 22.2941 63.5734C22.4879 63.1055 22.5869 62.6038 22.5853 62.0974C22.5812 61.8953 22.5617 61.6938 22.5269 61.4946L24.317 59.7045L30.488 57.7411L30.4837 67.7411ZM39.5727 52.4769L24.0247 57.4253L20.4805 53.8812L25.4279 38.331C26.0139 36.4893 27.0641 34.8293 28.4774 33.5109C29.8907 32.1924 31.6196 31.2599 33.4976 30.8031C35.3756 30.3462 37.3396 30.3804 39.2006 30.9023C41.0615 31.4242 42.7569 32.4163 44.1235 33.7831C45.49 35.1499 46.4818 36.8454 47.0035 38.7064C47.5251 40.5675 47.559 42.5315 47.1018 44.4094C46.6447 46.2873 45.7119 48.016 44.3933 49.4291C43.0747 50.8422 41.4146 51.8922 39.5727 52.478V52.4769Z" fill="#333333"/>
<path d="M36.1325 32.7426C34.3454 32.7426 32.5984 33.2726 31.1125 34.2655C29.6265 35.2583 28.4684 36.6695 27.7845 38.3206C27.1006 39.9717 26.9217 41.7885 27.2703 43.5413C27.619 45.2941 28.4795 46.9041 29.7432 48.1678C31.0069 49.4314 32.6169 50.292 34.3697 50.6407C36.1225 50.9893 37.9393 50.8104 39.5904 50.1265C41.2414 49.4426 42.6527 48.2844 43.6455 46.7985C44.6384 45.3126 45.1683 43.5656 45.1683 41.7785C45.1664 39.3826 44.2137 37.0855 42.5196 35.3914C40.8255 33.6972 38.5284 32.7446 36.1325 32.7426ZM32.7414 39.9841L34.5326 41.7785L32.7414 43.5654L30.9513 41.7785L32.7414 39.9841ZM34.336 38.3895L36.1325 36.5972L37.9227 38.3874L36.1325 40.1786L34.336 38.3895ZM36.1325 43.373L37.9227 45.1632L36.1325 46.9523L34.3424 45.1621L36.1325 43.373ZM39.5193 43.5676L37.7271 41.7785L39.5172 39.9883L41.3063 41.7785L39.5193 43.5676ZM42.6404 39.9139L37.996 35.2695C39.0986 35.5883 40.1025 36.1813 40.9139 36.9931C41.7253 37.8049 42.3179 38.809 42.6362 39.9118L42.6404 39.9139ZM34.2701 35.2695L29.6257 39.9139C29.9434 38.8104 30.5356 37.8054 31.3471 36.9928C32.1585 36.1802 33.1627 35.5866 34.2658 35.2674L34.2701 35.2695ZM29.6257 43.6398L34.2701 48.2843C33.1654 47.9663 32.1595 47.3732 31.3464 46.5606C30.5334 45.7479 29.9399 44.7423 29.6214 43.6377L29.6257 43.6398ZM37.996 48.2843L42.6404 43.6398C42.3213 44.7436 41.7275 45.7484 40.9145 46.5603C40.1015 47.3721 39.0959 47.9646 37.9918 48.2821L37.996 48.2843Z" fill="#333333"/>
<path d="M11.291 39.5163H15.8068V41.7742H11.291V39.5163Z" fill="#333333"/>
</g>
<defs>
<clipPath id="clip0_46_1522">
<rect width="49.6768" height="70" fill="white"/>
</clipPath>
</defs>
</svg>
